<svg xmlns="http://www.w3.org/2000/svg" xmlns:xlink="http://www.w3.org/1999/xlink" preserveAspectRatio="xMidYMid" width="32" height="32" viewBox="0 0 32 32">
  <defs>
    <style>

      .cls-3 {
        fill: #ffffff;
      }

      .cls-6 {
        fill: #abb3c9;
      }

      .cls-7 {
        fill: #10313f;
      }

      .cls-8 {
        fill: #b4bfd1;
      }

      .cls-10 {
        fill: #143b4c;
      }

      .cls-11 {
        fill: #d6dce6;
      }

      .cls-12 {
        fill: #99a0ba;
      }

      .cls-15 {
        fill: #61b9e8;
      }

      .cls-16 {
        fill: #4baad3;
      }

      .cls-17 {
        fill: #0d252c;
      }

      .cls-19 {
        fill: #0b0b0b;
      }

      .cls-21 {
        fill: #525365;
      }
    </style>
  </defs>
  <g id="jason-logo-headsvg">
    <circle id="circle-1" class="cls-3" cx="16" cy="16" r="16"/>
    <g id="jason-head">
      <g id="bg-1">
        <path d="M25.781,18.980 C25.781,18.980 25.707,18.977 25.707,18.977 C25.707,18.977 25.703,18.918 25.703,18.918 C25.688,18.728 25.408,18.214 25.301,18.032 C25.301,18.032 25.248,17.942 25.248,17.942 C25.248,17.942 25.558,17.918 25.558,17.918 C25.303,17.590 25.244,17.229 25.396,16.910 C25.533,16.625 25.829,16.418 26.101,16.418 C26.136,16.421 26.811,16.490 26.778,17.745 C26.746,18.945 25.880,18.980 25.781,18.980 ZM21.999,18.659 C21.987,18.678 21.977,18.698 21.965,18.716 C21.827,19.003 21.665,19.390 21.523,19.739 C22.299,19.541 23.830,19.381 22.608,22.975 C22.263,23.989 21.280,24.850 19.865,25.409 C20.038,25.440 20.232,25.485 20.441,25.542 C19.252,25.845 17.677,26.107 15.755,26.120 C15.755,26.120 15.807,26.110 15.895,26.092 C12.964,26.090 9.760,25.126 9.203,22.975 C8.769,21.296 10.671,19.843 10.689,19.829 C10.689,19.829 10.764,19.774 10.764,19.774 C10.764,19.774 8.424,19.532 8.315,17.472 C8.206,15.412 9.371,15.456 9.990,14.247 C10.609,13.039 12.320,13.764 14.330,13.708 C16.340,13.651 16.508,13.937 18.361,13.570 C20.214,13.202 22.480,14.524 23.608,16.078 C24.705,17.588 22.426,18.019 21.999,18.659 ZM6.699,18.032 C6.592,18.214 6.312,18.728 6.297,18.918 C6.297,18.918 6.293,18.977 6.293,18.977 C6.293,18.977 6.219,18.980 6.219,18.980 C6.120,18.980 5.254,18.945 5.222,17.745 C5.189,16.490 5.864,16.421 5.893,16.418 C5.893,16.418 5.894,16.418 5.894,16.418 C6.172,16.418 6.468,16.625 6.604,16.910 C6.756,17.229 6.697,17.590 6.442,17.918 C6.442,17.918 6.752,17.942 6.752,17.942 C6.752,17.942 6.699,18.032 6.699,18.032 Z" id="path-1" class="cls-6" fill-rule="evenodd"/>
        <path d="M26.128,16.218 C26.128,16.218 26.116,16.217 26.116,16.217 C26.116,16.217 26.104,16.217 26.104,16.217 C26.039,16.217 25.973,16.228 25.908,16.244 C25.908,16.244 25.908,16.111 25.908,16.111 C25.908,16.111 25.913,16.111 25.913,16.111 C26.056,15.032 26.114,14.054 26.092,13.166 C26.092,13.166 26.092,13.166 26.092,13.165 C26.092,6.801 20.550,4.557 20.550,4.557 C20.550,4.557 20.550,5.106 20.550,5.106 C19.579,4.326 18.644,3.729 18.644,3.729 C18.644,3.729 18.644,4.632 18.644,4.632 C18.459,4.523 18.286,4.423 18.123,4.333 C17.640,4.009 16.936,3.507 16.574,3.108 C16.574,3.108 16.080,4.446 16.080,4.446 C16.080,4.446 15.708,3.241 15.708,3.241 C15.567,3.664 14.330,4.441 14.330,4.442 C14.330,4.442 14.330,4.442 14.330,4.442 C14.333,3.885 14.164,2.996 14.164,2.996 C14.164,2.996 11.682,4.996 11.682,4.996 C11.682,4.996 11.446,4.264 11.446,4.264 C11.446,4.264 10.185,5.073 9.442,5.950 C9.442,5.950 9.442,5.525 9.442,5.525 C9.442,5.525 5.731,7.980 5.731,12.931 C5.731,12.941 5.731,12.951 5.731,12.962 C5.692,13.639 5.703,14.367 5.769,15.152 C5.811,16.068 5.872,16.111 5.872,16.111 C5.872,16.111 5.872,16.218 5.872,16.218 C5.872,16.218 5.872,16.218 5.872,16.218 C5.835,16.221 4.969,16.308 5.008,17.752 C5.031,18.632 5.486,19.008 5.891,19.133 C5.911,19.788 6.320,26.439 14.789,26.961 C14.789,26.961 17.186,26.961 17.186,26.961 C25.625,26.441 26.061,19.835 26.084,19.141 C26.495,19.024 26.968,18.650 26.992,17.752 C27.031,16.308 26.165,16.221 26.128,16.218 ZM6.224,18.918 C6.224,18.918 6.221,18.918 6.215,18.918 C6.124,18.918 5.319,18.885 5.288,17.745 C5.256,16.536 5.896,16.484 5.896,16.484 C6.371,16.484 7.003,17.214 6.301,17.976 C6.301,17.976 6.634,18.002 6.634,18.002 C6.634,18.002 6.243,18.670 6.224,18.918 ZM22.502,17.223 C22.431,18.678 21.073,19.744 21.060,19.754 C21.060,19.754 20.986,19.812 20.986,19.812 C20.986,19.812 21.061,19.867 21.061,19.867 C21.080,19.882 22.545,20.645 22.110,22.328 C21.553,24.486 18.846,25.590 15.911,25.590 C12.977,25.590 10.270,24.486 9.713,22.328 C9.278,20.645 10.744,19.882 10.762,19.867 C10.762,19.867 10.837,19.812 10.837,19.812 C10.837,19.812 10.763,19.754 10.763,19.754 C10.750,19.744 9.392,18.678 9.321,17.223 C9.280,16.385 9.672,15.576 10.484,14.821 C11.033,14.310 11.770,14.052 12.677,14.052 C14.055,14.052 15.385,14.649 15.911,14.965 C16.438,14.649 17.768,14.052 19.146,14.052 C20.053,14.052 20.789,14.310 21.339,14.821 C22.151,15.576 22.543,16.385 22.502,17.223 ZM26.711,17.745 C26.681,18.885 25.876,18.918 25.785,18.918 C25.779,18.918 25.776,18.918 25.776,18.918 C25.757,18.670 25.366,18.002 25.366,18.002 C25.366,18.002 25.699,17.976 25.699,17.976 C24.997,17.214 25.628,16.484 26.104,16.484 C26.104,16.484 26.744,16.536 26.711,17.745 Z" id="path-2" class="cls-7" fill-rule="evenodd"/>
        <path d="M20.709,21.585 C20.709,22.995 18.601,24.138 16.000,24.138 C13.399,24.138 11.291,22.995 11.291,21.585 C11.291,20.175 13.399,19.032 16.000,19.032 C18.601,19.032 20.709,20.175 20.709,21.585 Z" id="path-3" class="cls-8" fill-rule="evenodd"/>
      </g>
      <g id="details">
        <path d="M8.909,13.999 C9.522,13.455 10.206,13.020 11.033,12.829 C12.226,12.552 13.491,12.754 14.627,13.151 C15.016,13.287 15.397,13.443 15.760,13.633 C15.986,13.750 15.996,13.797 16.225,13.675 C16.951,13.285 17.754,13.002 18.570,12.837 C19.537,12.642 20.578,12.631 21.512,12.970 C22.646,13.382 23.353,14.173 24.060,15.068 C23.581,13.978 22.879,13.046 21.745,12.495 C20.848,12.059 19.802,11.949 18.808,12.058 C17.926,12.155 17.063,12.401 16.261,12.762 C16.045,12.859 16.017,12.858 15.802,12.761 C15.602,12.672 15.398,12.589 15.192,12.514 C14.739,12.349 14.269,12.218 13.792,12.134 C12.724,11.944 11.590,11.968 10.579,12.376 C9.314,12.887 8.514,13.897 8.003,15.068 C8.295,14.699 8.579,14.338 8.909,13.999 Z" id="path-4" class="cls-10" fill-rule="evenodd"/>
        <path d="M16.812,20.251 C16.448,20.251 16.050,20.104 15.901,20.042 C15.752,20.104 15.355,20.251 14.990,20.251 C14.530,20.251 13.782,20.007 13.782,20.007 C13.782,20.007 13.403,19.426 13.982,18.869 C14.510,18.362 15.857,18.996 15.857,18.996 C15.857,18.996 15.901,18.996 15.901,18.996 C15.901,18.996 15.946,18.996 15.946,18.996 C15.946,18.996 17.237,18.419 17.820,18.869 C18.460,19.364 18.018,20.007 18.018,20.007 C18.018,20.007 17.272,20.251 16.812,20.251 ZM19.256,22.758 C19.256,22.758 18.156,23.597 15.968,23.597 C13.781,23.597 12.681,22.758 12.681,22.758 C12.681,22.758 13.940,23.194 15.987,23.194 C18.033,23.194 19.256,22.758 19.256,22.758 Z" id="path-5" class="cls-11" fill-rule="evenodd"/>
        <path d="M22.167,17.062 C20.634,13.867 15.905,15.752 15.905,15.752 C15.905,15.752 11.176,13.867 9.644,17.062 C9.644,17.062 9.521,14.989 11.972,14.392 C13.564,14.005 15.901,15.271 15.905,15.269 C15.909,15.271 18.246,14.005 19.838,14.392 C22.290,14.989 22.167,17.062 22.167,17.062 ZM13.600,19.237 C13.603,19.325 13.607,19.414 13.610,19.503 C12.975,19.487 12.397,19.797 11.885,20.114 C12.376,19.702 12.927,19.315 13.600,19.237 ZM19.871,20.114 C19.349,19.757 18.770,19.464 18.104,19.475 C18.108,19.386 18.112,19.298 18.116,19.209 C18.814,19.289 19.381,19.665 19.871,20.114 Z" id="path-6" class="cls-12" fill-rule="evenodd"/>
        <path d="M21.117,22.185 C21.071,22.038 21.051,21.884 21.006,21.737 C20.984,21.757 20.962,21.777 20.940,21.796 C20.606,22.092 20.214,22.330 19.808,22.525 C19.078,22.875 18.280,23.087 17.472,23.198 C16.401,23.344 15.290,23.333 14.225,23.149 C13.457,23.017 12.704,22.787 12.018,22.431 C11.651,22.240 11.296,22.013 10.995,21.736 C10.954,21.883 10.936,22.036 10.894,22.183 C10.773,21.994 10.749,21.751 10.846,21.548 C10.936,21.359 11.168,21.183 11.400,21.223 C11.308,21.286 11.223,21.360 11.153,21.445 C11.119,21.487 11.129,21.487 11.162,21.517 C11.183,21.537 11.205,21.557 11.227,21.576 C11.287,21.628 11.350,21.678 11.413,21.727 C11.614,21.880 11.830,22.015 12.053,22.136 C12.791,22.538 13.617,22.785 14.455,22.915 C15.609,23.093 16.819,23.074 17.964,22.844 C18.729,22.690 19.479,22.431 20.142,22.034 C20.332,21.920 20.514,21.794 20.684,21.654 C20.734,21.613 20.784,21.569 20.831,21.524 C20.839,21.517 20.850,21.509 20.856,21.501 C20.869,21.481 20.871,21.484 20.851,21.460 C20.778,21.369 20.683,21.291 20.585,21.227 C20.863,21.172 21.155,21.425 21.199,21.673 C21.233,21.851 21.215,22.026 21.117,22.185 ZM17.537,19.648 C17.537,19.837 17.296,19.992 17.000,19.992 C16.703,19.992 16.463,19.837 16.463,19.648 C16.463,19.458 16.703,19.304 17.000,19.304 C17.296,19.304 17.537,19.458 17.537,19.648 ZM18.100,19.480 C18.056,19.193 17.841,18.937 17.549,18.846 C17.194,18.736 16.796,18.776 16.434,18.836 C16.770,18.693 17.210,18.620 17.568,18.720 C17.736,18.767 17.887,18.846 18.002,18.973 C18.035,19.009 18.064,19.052 18.090,19.092 C18.104,19.114 18.226,19.360 18.202,19.366 C18.228,19.601 18.180,19.836 18.009,20.018 C18.079,19.841 18.130,19.673 18.100,19.480 ZM14.908,19.992 C14.612,19.992 14.372,19.837 14.372,19.648 C14.372,19.458 14.612,19.304 14.908,19.304 C15.204,19.304 15.444,19.458 15.444,19.648 C15.444,19.837 15.204,19.992 14.908,19.992 ZM13.919,19.082 C13.808,19.224 13.732,19.380 13.721,19.559 C13.711,19.723 13.761,19.867 13.820,20.018 C13.536,19.716 13.568,19.267 13.834,18.968 C13.927,18.879 14.018,18.810 14.141,18.759 C14.285,18.700 14.449,18.680 14.606,18.679 C14.870,18.678 15.154,18.730 15.395,18.836 C15.206,18.803 15.015,18.784 14.823,18.780 C14.503,18.776 14.125,18.821 13.919,19.082 Z" id="path-7" class="cls-7" fill-rule="evenodd"/>
      </g>
      <g id="bowtie">
        <path d="M12.176,26.001 C12.176,26.001 12.049,25.460 13.062,25.630 C14.075,25.801 15.193,26.222 15.193,26.222 C15.193,26.222 15.267,25.868 15.889,25.909 C16.512,25.951 16.849,26.272 16.849,26.272 C16.849,26.272 18.305,25.660 18.906,25.670 C19.508,25.680 19.550,25.530 19.624,25.750 C19.698,25.971 19.687,26.152 19.624,26.463 C19.560,26.773 19.265,27.124 19.265,27.335 C19.265,27.545 19.655,28.735 19.107,28.809 C18.559,28.883 16.775,27.967 16.775,27.967 C16.775,27.967 16.649,28.328 16.069,28.328 C15.488,28.328 15.182,28.087 15.182,28.087 C15.182,28.087 13.241,28.858 12.914,28.813 C12.587,28.769 12.566,28.448 12.608,28.157 C12.650,27.867 12.766,27.345 12.703,27.295 C12.640,27.245 12.176,26.001 12.176,26.001 Z" id="path-8" class="cls-15" fill-rule="evenodd"/>
        <path d="M12.984,27.387 C12.984,27.387 13.034,27.952 13.508,27.952 C13.982,27.952 14.995,27.212 14.995,27.212 C14.995,27.212 15.671,27.686 16.038,27.686 C16.404,27.686 16.706,27.212 16.706,27.212 C16.706,27.212 18.862,27.526 19.438,26.823 C20.014,26.120 19.304,27.359 19.304,27.359 C19.304,27.359 19.714,28.721 19.248,28.832 C18.781,28.943 16.843,28.035 16.843,28.035 C16.843,28.035 16.330,28.348 15.972,28.342 C15.614,28.335 15.233,28.108 15.233,28.108 C15.233,28.108 13.112,28.896 12.770,28.752 C12.428,28.608 12.690,27.571 12.984,27.387 Z" id="path-9" class="cls-16" fill-rule="evenodd"/>
        <path d="M19.982,25.789 C19.951,25.661 19.866,25.561 19.737,25.500 C19.139,25.220 17.465,25.873 16.863,26.126 C16.672,25.888 16.372,25.735 16.034,25.735 C15.695,25.735 15.395,25.889 15.204,26.127 C14.604,25.875 12.924,25.219 12.326,25.500 C12.197,25.561 12.112,25.661 12.081,25.789 C11.923,26.445 12.382,27.198 12.550,27.444 C12.456,27.701 12.244,28.400 12.502,28.823 C12.580,28.949 12.735,29.003 12.943,29.003 C13.497,29.003 14.426,28.623 15.245,28.225 C15.437,28.435 15.719,28.569 16.034,28.569 C16.367,28.569 16.663,28.419 16.855,28.188 C17.669,28.603 18.591,29.000 19.137,29.000 C19.336,29.000 19.485,28.947 19.561,28.823 C19.819,28.400 19.607,27.701 19.514,27.444 C19.681,27.198 20.140,26.445 19.982,25.789 ZM12.830,28.641 C12.651,28.349 12.853,27.692 12.937,27.484 C12.937,27.484 12.975,27.393 12.975,27.393 C12.975,27.393 12.914,27.313 12.914,27.313 C12.743,27.087 12.326,26.386 12.451,25.870 C12.454,25.855 12.460,25.840 12.494,25.824 C12.840,25.662 14.129,26.074 15.031,26.450 C15.003,26.539 14.988,26.633 14.988,26.731 C14.988,26.731 14.988,27.572 14.988,27.572 C14.988,27.692 15.011,27.806 15.052,27.913 C14.011,28.412 12.994,28.745 12.830,28.641 ZM16.700,27.572 C16.700,27.923 16.401,28.207 16.034,28.207 C15.666,28.207 15.367,27.923 15.367,27.572 C15.367,27.572 15.367,26.731 15.367,26.731 C15.367,26.380 15.666,26.096 16.034,26.096 C16.401,26.096 16.700,26.380 16.700,26.731 C16.700,26.731 16.700,27.572 16.700,27.572 ZM19.126,27.484 C19.211,27.691 19.412,28.348 19.241,28.633 C19.069,28.739 18.059,28.386 17.033,27.868 C17.063,27.775 17.080,27.675 17.080,27.572 C17.080,27.572 17.080,26.731 17.080,26.731 C17.080,26.633 17.064,26.537 17.036,26.448 C17.937,26.072 19.225,25.662 19.569,25.824 C19.603,25.840 19.609,25.855 19.612,25.870 C19.762,26.490 19.155,27.305 19.148,27.313 C19.148,27.313 19.088,27.393 19.088,27.393 C19.088,27.393 19.126,27.484 19.126,27.484 Z" id="path-10" class="cls-17" fill-rule="evenodd"/>
      </g>
      <g id="eyes">
        <path d="M19.776,18.177 C19.677,18.383 19.504,18.529 19.290,18.584 C19.270,18.589 19.252,18.593 19.233,18.596 C19.232,18.597 19.232,18.597 19.232,18.597 C18.815,18.671 18.383,18.377 18.251,17.928 C18.185,17.701 18.200,17.467 18.296,17.268 C18.395,17.062 18.569,16.917 18.783,16.862 C19.218,16.748 19.684,17.048 19.821,17.518 C19.887,17.744 19.873,17.978 19.776,18.177 ZM12.792,18.607 C12.772,18.605 12.753,18.602 12.733,18.598 C12.319,18.509 12.049,18.077 12.118,17.615 C12.153,17.382 12.268,17.174 12.441,17.028 C12.619,16.877 12.839,16.808 13.059,16.839 C13.506,16.898 13.805,17.348 13.732,17.831 C13.659,18.318 13.236,18.667 12.792,18.607 Z" id="path-11" class="cls-19" fill-rule="evenodd"/>
        <path d="M19.179,17.568 C19.018,17.597 18.864,17.497 18.834,17.346 C18.804,17.195 18.910,17.048 19.070,17.020 C19.231,16.990 19.385,17.089 19.415,17.241 C19.445,17.392 19.339,17.538 19.179,17.568 ZM13.130,17.615 C12.971,17.581 12.871,17.431 12.907,17.281 C12.942,17.130 13.100,17.037 13.260,17.072 C13.419,17.106 13.519,17.256 13.483,17.406 C13.448,17.557 13.290,17.650 13.130,17.615 Z" id="path-12" class="cls-3" fill-rule="evenodd"/>
        <path d="M19.506,18.164 C19.500,18.185 19.433,18.346 19.204,18.353 C19.163,18.355 19.126,18.353 19.090,18.346 C19.090,18.346 19.090,18.346 19.089,18.346 C19.089,18.346 19.087,18.345 19.086,18.345 C19.072,18.344 19.059,18.342 19.046,18.339 C19.043,18.338 19.039,18.338 19.035,18.338 C19.022,18.334 19.008,18.330 18.996,18.327 C18.993,18.327 18.991,18.327 18.990,18.324 C18.624,18.216 18.516,17.814 18.516,17.814 C18.529,17.831 18.545,17.845 18.559,17.861 C18.917,18.259 19.508,18.160 19.508,18.160 C19.508,18.160 19.508,18.163 19.506,18.164 ZM12.831,18.348 C12.792,18.334 12.759,18.316 12.729,18.298 C12.717,18.291 12.705,18.284 12.693,18.276 C12.689,18.274 12.684,18.271 12.681,18.268 C12.663,18.256 12.647,18.242 12.631,18.227 C12.628,18.226 12.626,18.224 12.624,18.221 C12.623,18.219 12.621,18.218 12.620,18.216 C12.609,18.209 12.600,18.199 12.592,18.187 C12.365,17.947 12.427,17.592 12.427,17.592 C12.431,17.613 12.438,17.631 12.444,17.651 C12.606,18.153 13.190,18.287 13.190,18.287 C13.190,18.287 13.189,18.288 13.188,18.290 C13.179,18.298 13.049,18.432 12.831,18.348 Z" id="path-13" class="cls-21" fill-rule="evenodd"/>
      </g>
    </g>
  </g>
</svg>
