<svg xmlns="http://www.w3.org/2000/svg" xmlns:xlink="http://www.w3.org/1999/xlink" preserveAspectRatio="xMidYMid" width="154" height="26" viewBox="0 0 154 26">
  <defs>
    <style>

      .cls-3 {
        fill: #152f3e;
      }

      .cls-7 {
        fill: #abb3c9;
      }

      .cls-8 {
        fill: #10313f;
      }

      .cls-9 {
        fill: #b4bfd1;
      }

      .cls-11 {
        fill: #143b4c;
      }

      .cls-12 {
        fill: #d6dce6;
      }

      .cls-13 {
        fill: #99a0ba;
      }

      .cls-16 {
        fill: #61b9e8;
      }

      .cls-17 {
        fill: #4baad3;
      }

      .cls-18 {
        fill: #0d252c;
      }

      .cls-20 {
        fill: #0b0b0b;
      }

      .cls-21 {
        fill: #ffffff;
      }

      .cls-22 {
        fill: #525365;
      }
    </style>
  </defs>
  <g id="logo-on-bluesvg">
    <path d="M153.439,13.740 C153.439,13.740 145.851,13.740 145.851,13.740 C146.035,16.063 147.253,16.937 149.047,16.937 C150.197,16.937 151.323,16.569 152.588,15.948 C152.588,15.948 153.186,17.994 153.186,17.994 C151.944,18.661 150.243,19.075 148.679,19.075 C145.184,19.075 142.930,17.052 142.930,13.096 C142.930,8.980 145.391,6.796 148.587,6.796 C151.553,6.796 153.508,8.658 153.508,12.499 C153.508,12.913 153.485,13.326 153.439,13.740 ZM148.495,8.865 C147.046,8.865 145.989,9.900 145.805,11.901 C145.805,11.901 150.840,11.901 150.840,11.901 C150.817,9.785 149.875,8.865 148.495,8.865 ZM139.254,16.868 C140.197,16.868 141.002,16.546 141.714,15.994 C141.714,15.994 142.312,18.109 142.312,18.109 C141.415,18.684 140.197,19.075 138.794,19.075 C135.621,19.075 133.390,17.075 133.390,13.073 C133.390,8.980 135.736,6.796 139.093,6.796 C140.473,6.796 141.461,7.164 142.243,7.693 C142.243,7.693 141.645,9.992 141.645,9.992 C140.887,9.463 140.151,9.072 139.185,9.072 C137.506,9.072 136.242,10.268 136.242,12.981 C136.242,15.672 137.483,16.868 139.254,16.868 ZM128.933,17.466 C127.921,18.500 126.725,19.075 125.345,19.075 C123.322,19.075 121.850,17.810 121.850,15.442 C121.850,12.981 123.437,11.510 127.162,11.510 C127.829,11.510 128.312,11.556 128.910,11.648 C128.910,11.648 128.910,11.188 128.910,11.188 C128.910,9.647 128.174,9.072 126.748,9.072 C125.506,9.072 124.311,9.509 123.092,10.107 C123.092,10.107 122.494,7.946 122.494,7.946 C123.805,7.302 125.460,6.796 127.346,6.796 C130.036,6.796 131.692,7.831 131.692,10.958 C131.692,10.958 131.692,16.132 131.692,16.132 C131.692,17.994 131.807,18.523 131.922,18.799 C131.922,18.799 129.232,18.799 129.232,18.799 C129.117,18.615 129.002,18.293 128.933,17.466 ZM128.910,13.395 C128.312,13.303 127.967,13.257 127.415,13.257 C125.391,13.257 124.633,13.901 124.633,15.166 C124.633,16.362 125.299,16.914 126.311,16.914 C127.254,16.914 128.197,16.408 128.910,15.741 C128.910,15.741 128.910,13.395 128.910,13.395 ZM117.138,2.243 C117.138,2.243 119.989,2.243 119.989,2.243 C119.989,2.243 119.989,18.799 119.989,18.799 C119.989,18.799 117.138,18.799 117.138,18.799 C117.138,18.799 117.138,2.243 117.138,2.243 ZM110.623,19.075 C109.312,19.075 108.254,18.523 107.311,17.420 C107.311,17.420 107.311,23.628 107.311,23.628 C107.311,23.628 104.460,23.628 104.460,23.628 C104.460,23.628 104.460,7.072 104.460,7.072 C104.460,7.072 107.311,7.072 107.311,7.072 C107.311,7.072 107.311,8.612 107.311,8.612 C108.300,7.440 109.473,6.796 110.899,6.796 C113.520,6.796 115.314,8.957 115.314,12.775 C115.314,16.891 113.244,19.075 110.623,19.075 ZM109.956,9.233 C109.036,9.233 108.185,9.693 107.311,10.590 C107.311,10.590 107.311,15.534 107.311,15.534 C108.116,16.385 108.967,16.799 109.864,16.799 C111.405,16.799 112.462,15.626 112.462,13.004 C112.462,10.383 111.405,9.233 109.956,9.233 ZM96.771,15.603 C96.771,15.603 96.771,9.279 96.771,9.279 C96.771,9.279 94.793,9.279 94.793,9.279 C94.793,9.279 94.793,7.072 94.793,7.072 C94.793,7.072 96.771,7.072 96.771,7.072 C96.771,7.072 96.771,3.163 96.771,3.163 C96.771,3.163 99.622,3.163 99.622,3.163 C99.622,3.163 99.622,7.072 99.622,7.072 C99.622,7.072 102.175,7.072 102.175,7.072 C102.175,7.072 102.175,9.279 102.175,9.279 C102.175,9.279 99.622,9.279 99.622,9.279 C99.622,9.279 99.622,15.166 99.622,15.166 C99.622,16.339 99.898,16.684 100.795,16.684 C101.324,16.684 101.784,16.569 102.175,16.454 C102.175,16.454 102.175,18.730 102.175,18.730 C101.577,18.845 100.841,18.937 100.013,18.937 C97.622,18.937 96.771,18.178 96.771,15.603 ZM86.611,13.740 C86.795,16.063 88.013,16.937 89.807,16.937 C90.957,16.937 92.083,16.569 93.348,15.948 C93.348,15.948 93.946,17.994 93.946,17.994 C92.704,18.661 91.003,19.075 89.439,19.075 C85.944,19.075 83.690,17.052 83.690,13.096 C83.690,8.980 86.151,6.796 89.347,6.796 C92.313,6.796 94.268,8.658 94.268,12.499 C94.268,12.913 94.245,13.326 94.199,13.740 C94.199,13.740 86.611,13.740 86.611,13.740 ZM89.255,8.865 C87.806,8.865 86.749,9.900 86.565,11.901 C86.565,11.901 91.600,11.901 91.600,11.901 C91.577,9.785 90.635,8.865 89.255,8.865 ZM79.336,18.799 C79.336,18.799 76.071,13.257 76.071,13.257 C76.071,13.257 74.691,14.706 74.691,14.706 C74.691,14.706 74.691,18.799 74.691,18.799 C74.691,18.799 71.840,18.799 71.840,18.799 C71.840,18.799 71.840,2.243 71.840,2.243 C71.840,2.243 74.691,2.243 74.691,2.243 C74.691,2.243 74.691,11.832 74.691,11.832 C74.691,11.832 78.785,7.072 78.785,7.072 C78.785,7.072 81.981,7.072 81.981,7.072 C81.981,7.072 77.865,11.349 77.865,11.349 C77.865,11.349 82.349,18.799 82.349,18.799 C82.349,18.799 79.336,18.799 79.336,18.799 ZM66.151,10.981 C66.151,10.981 66.151,18.799 66.151,18.799 C66.151,18.799 63.300,18.799 63.300,18.799 C63.300,18.799 63.300,7.072 63.300,7.072 C63.300,7.072 66.151,7.072 66.151,7.072 C66.151,7.072 66.151,8.888 66.151,8.888 C66.818,7.785 67.991,6.796 69.555,6.796 C69.808,6.796 70.084,6.819 70.268,6.865 C70.268,6.865 70.268,9.417 70.268,9.417 C70.084,9.394 69.785,9.371 69.532,9.371 C67.876,9.371 66.634,10.475 66.151,10.981 ZM58.153,17.466 C57.141,18.500 55.945,19.075 54.565,19.075 C52.542,19.075 51.070,17.810 51.070,15.442 C51.070,12.981 52.657,11.510 56.382,11.510 C57.049,11.510 57.532,11.556 58.130,11.648 C58.130,11.648 58.130,11.188 58.130,11.188 C58.130,9.647 57.394,9.072 55.968,9.072 C54.726,9.072 53.531,9.509 52.312,10.107 C52.312,10.107 51.714,7.946 51.714,7.946 C53.025,7.302 54.680,6.796 56.566,6.796 C59.256,6.796 60.912,7.831 60.912,10.958 C60.912,10.958 60.912,16.132 60.912,16.132 C60.912,17.994 61.027,18.523 61.142,18.799 C61.142,18.799 58.452,18.799 58.452,18.799 C58.337,18.615 58.222,18.293 58.153,17.466 ZM58.130,13.395 C57.532,13.303 57.187,13.257 56.635,13.257 C54.611,13.257 53.853,13.901 53.853,15.166 C53.853,16.362 54.519,16.914 55.531,16.914 C56.474,16.914 57.417,16.408 58.130,15.741 C58.130,15.741 58.130,13.395 58.130,13.395 ZM46.477,10.889 C46.477,9.647 45.948,9.279 45.097,9.279 C43.993,9.279 43.028,9.877 42.200,10.636 C42.200,10.636 42.200,18.799 42.200,18.799 C42.200,18.799 39.348,18.799 39.348,18.799 C39.348,18.799 39.348,10.889 39.348,10.889 C39.348,9.647 38.797,9.279 37.969,9.279 C36.888,9.279 35.899,9.877 35.071,10.682 C35.071,10.682 35.071,18.799 35.071,18.799 C35.071,18.799 32.220,18.799 32.220,18.799 C32.220,18.799 32.220,7.072 32.220,7.072 C32.220,7.072 35.071,7.072 35.071,7.072 C35.071,7.072 35.071,8.635 35.071,8.635 C36.014,7.670 37.394,6.796 39.142,6.796 C40.360,6.796 41.579,7.233 42.016,8.658 C43.005,7.693 44.430,6.796 46.293,6.796 C48.064,6.796 49.328,7.624 49.328,10.061 C49.328,10.061 49.328,18.799 49.328,18.799 C49.328,18.799 46.477,18.799 46.477,18.799 C46.477,18.799 46.477,10.889 46.477,10.889 Z" id="path-1" class="cls-3" fill-rule="evenodd"/>
    <g id="jason-logo-head">
      <g id="jason-head">
        <g id="bg">
          <path d="M20.781,15.980 C20.781,15.980 20.707,15.977 20.707,15.977 C20.707,15.977 20.703,15.918 20.703,15.918 C20.688,15.728 20.408,15.214 20.301,15.033 C20.301,15.033 20.248,14.942 20.248,14.942 C20.248,14.942 20.558,14.918 20.558,14.918 C20.303,14.590 20.244,14.229 20.396,13.910 C20.533,13.625 20.829,13.418 21.101,13.418 C21.136,13.421 21.811,13.490 21.778,14.745 C21.746,15.945 20.880,15.980 20.781,15.980 ZM16.999,15.659 C16.987,15.679 16.977,15.698 16.965,15.717 C16.827,16.003 16.665,16.390 16.523,16.739 C17.299,16.541 18.830,16.381 17.608,19.975 C17.263,20.989 16.280,21.850 14.865,22.409 C15.038,22.440 15.232,22.485 15.441,22.542 C14.252,22.845 12.677,23.108 10.755,23.120 C10.755,23.120 10.807,23.110 10.895,23.092 C7.964,23.090 4.760,22.126 4.203,19.975 C3.769,18.296 5.671,16.843 5.689,16.829 C5.689,16.829 5.764,16.774 5.764,16.774 C5.764,16.774 3.424,16.532 3.315,14.472 C3.206,12.411 4.371,12.456 4.990,11.247 C5.609,10.038 7.320,10.764 9.330,10.708 C11.340,10.651 11.508,10.937 13.361,10.569 C15.214,10.202 17.480,11.524 18.608,13.078 C19.705,14.589 17.426,15.019 16.999,15.659 ZM1.699,15.033 C1.592,15.214 1.312,15.728 1.297,15.918 C1.297,15.918 1.292,15.977 1.292,15.977 C1.292,15.977 1.219,15.980 1.219,15.980 C1.120,15.980 0.254,15.945 0.222,14.745 C0.189,13.490 0.864,13.421 0.893,13.418 C0.893,13.418 0.894,13.418 0.894,13.418 C1.172,13.418 1.468,13.625 1.604,13.910 C1.756,14.229 1.697,14.590 1.442,14.918 C1.442,14.918 1.752,14.942 1.752,14.942 C1.752,14.942 1.699,15.033 1.699,15.033 Z" id="path-2" class="cls-7" fill-rule="evenodd"/>
          <path d="M21.128,13.218 C21.128,13.218 21.116,13.217 21.116,13.217 C21.116,13.217 21.104,13.217 21.104,13.217 C21.039,13.217 20.973,13.228 20.908,13.244 C20.908,13.244 20.908,13.111 20.908,13.111 C20.908,13.111 20.913,13.111 20.913,13.111 C21.056,12.033 21.115,11.054 21.092,10.166 C21.092,10.166 21.092,10.166 21.092,10.165 C21.092,3.801 15.550,1.557 15.550,1.557 C15.550,1.557 15.550,2.106 15.550,2.106 C14.579,1.326 13.644,0.729 13.644,0.729 C13.644,0.729 13.644,1.632 13.644,1.632 C13.459,1.523 13.286,1.423 13.123,1.334 C12.640,1.009 11.937,0.507 11.574,0.108 C11.574,0.108 11.080,1.446 11.080,1.446 C11.080,1.446 10.708,0.241 10.708,0.241 C10.567,0.664 9.330,1.441 9.330,1.441 C9.330,1.441 9.330,1.441 9.330,1.441 C9.333,0.885 9.164,-0.004 9.164,-0.004 C9.164,-0.004 6.682,1.996 6.682,1.996 C6.682,1.996 6.446,1.263 6.446,1.263 C6.446,1.263 5.185,2.073 4.442,2.949 C4.442,2.949 4.442,2.525 4.442,2.525 C4.442,2.525 0.731,4.980 0.731,9.931 C0.731,9.942 0.731,9.951 0.731,9.961 C0.692,10.639 0.703,11.367 0.769,12.153 C0.811,13.068 0.872,13.111 0.872,13.111 C0.872,13.111 0.872,13.218 0.872,13.218 C0.872,13.218 0.872,13.218 0.872,13.218 C0.835,13.221 -0.031,13.309 0.008,14.752 C0.031,15.631 0.486,16.008 0.891,16.133 C0.911,16.788 1.320,23.439 9.789,23.961 C9.789,23.961 12.186,23.961 12.186,23.961 C20.625,23.440 21.061,16.836 21.084,16.141 C21.495,16.024 21.968,15.650 21.992,14.752 C22.031,13.309 21.165,13.221 21.128,13.218 ZM1.224,15.918 C1.224,15.918 1.221,15.918 1.215,15.918 C1.124,15.918 0.319,15.885 0.288,14.745 C0.256,13.536 0.896,13.484 0.896,13.484 C1.371,13.484 2.003,14.214 1.301,14.976 C1.301,14.976 1.634,15.002 1.634,15.002 C1.634,15.002 1.243,15.670 1.224,15.918 ZM17.502,14.223 C17.431,15.678 16.073,16.744 16.060,16.754 C16.060,16.754 15.986,16.812 15.986,16.812 C15.986,16.812 16.061,16.867 16.061,16.867 C16.080,16.881 17.545,17.645 17.110,19.328 C16.553,21.486 13.846,22.590 10.911,22.590 C7.977,22.590 5.270,21.486 4.713,19.328 C4.278,17.645 5.744,16.881 5.762,16.867 C5.762,16.867 5.837,16.812 5.837,16.812 C5.837,16.812 5.763,16.754 5.763,16.754 C5.750,16.744 4.392,15.678 4.321,14.223 C4.280,13.385 4.672,12.576 5.484,11.820 C6.033,11.310 6.770,11.052 7.677,11.052 C9.055,11.052 10.385,11.649 10.911,11.966 C11.438,11.649 12.768,11.052 14.146,11.052 C15.052,11.052 15.789,11.310 16.339,11.820 C17.151,12.576 17.543,13.385 17.502,14.223 ZM21.711,14.745 C21.681,15.885 20.876,15.918 20.785,15.918 C20.779,15.918 20.776,15.918 20.776,15.918 C20.757,15.670 20.366,15.002 20.366,15.002 C20.366,15.002 20.699,14.976 20.699,14.976 C19.997,14.214 20.628,13.484 21.104,13.484 C21.104,13.484 21.744,13.536 21.711,14.745 Z" id="path-3" class="cls-8" fill-rule="evenodd"/>
          <path d="M15.709,18.585 C15.709,19.995 13.601,21.138 11.000,21.138 C8.399,21.138 6.291,19.995 6.291,18.585 C6.291,17.175 8.399,16.032 11.000,16.032 C13.601,16.032 15.709,17.175 15.709,18.585 Z" id="path-4" class="cls-9" fill-rule="evenodd"/>
        </g>
        <g id="details">
          <path d="M3.909,10.999 C4.522,10.455 5.206,10.020 6.033,9.829 C7.226,9.551 8.491,9.755 9.627,10.151 C10.016,10.286 10.397,10.443 10.760,10.633 C10.986,10.751 10.996,10.797 11.225,10.675 C11.951,10.285 12.754,10.002 13.570,9.837 C14.537,9.642 15.578,9.631 16.512,9.970 C17.646,10.382 18.353,11.173 19.060,12.068 C18.581,10.978 17.879,10.047 16.745,9.495 C15.848,9.059 14.802,8.949 13.808,9.058 C12.926,9.155 12.063,9.401 11.261,9.762 C11.045,9.859 11.017,9.858 10.802,9.761 C10.602,9.672 10.398,9.589 10.192,9.514 C9.739,9.349 9.269,9.218 8.792,9.134 C7.724,8.944 6.590,8.968 5.579,9.376 C4.314,9.887 3.514,10.897 3.003,12.068 C3.295,11.699 3.579,11.338 3.909,10.999 Z" id="path-5" class="cls-11" fill-rule="evenodd"/>
          <path d="M11.812,17.251 C11.448,17.251 11.050,17.104 10.901,17.042 C10.752,17.104 10.355,17.251 9.990,17.251 C9.530,17.251 8.782,17.006 8.782,17.006 C8.782,17.006 8.403,16.426 8.982,15.869 C9.510,15.362 10.857,15.996 10.857,15.996 C10.857,15.996 10.901,15.996 10.901,15.996 C10.901,15.996 10.945,15.996 10.945,15.996 C10.945,15.996 12.237,15.419 12.820,15.869 C13.460,16.364 13.018,17.006 13.018,17.006 C13.018,17.006 12.272,17.251 11.812,17.251 ZM14.256,19.758 C14.256,19.758 13.156,20.597 10.968,20.597 C8.781,20.597 7.681,19.758 7.681,19.758 C7.681,19.758 8.940,20.194 10.987,20.194 C13.033,20.194 14.256,19.758 14.256,19.758 Z" id="path-6" class="cls-12" fill-rule="evenodd"/>
          <path d="M17.167,14.063 C15.634,10.867 10.905,12.752 10.905,12.752 C10.905,12.752 6.176,10.867 4.644,14.063 C4.644,14.063 4.521,11.989 6.972,11.393 C8.564,11.005 10.901,12.270 10.905,12.269 C10.909,12.270 13.246,11.005 14.838,11.393 C17.290,11.989 17.167,14.063 17.167,14.063 ZM8.600,16.237 C8.603,16.325 8.607,16.414 8.610,16.503 C7.975,16.487 7.397,16.797 6.885,17.114 C7.376,16.702 7.927,16.315 8.600,16.237 ZM14.871,17.114 C14.349,16.756 13.770,16.464 13.104,16.475 C13.108,16.386 13.112,16.298 13.116,16.209 C13.814,16.289 14.381,16.665 14.871,17.114 Z" id="path-7" class="cls-13" fill-rule="evenodd"/>
          <path d="M16.117,19.185 C16.071,19.038 16.051,18.885 16.006,18.737 C15.984,18.757 15.962,18.777 15.940,18.797 C15.606,19.091 15.214,19.330 14.808,19.524 C14.078,19.875 13.280,20.088 12.472,20.198 C11.401,20.345 10.290,20.333 9.225,20.149 C8.457,20.018 7.704,19.788 7.018,19.431 C6.651,19.240 6.296,19.013 5.995,18.736 C5.954,18.883 5.936,19.036 5.894,19.183 C5.772,18.994 5.749,18.750 5.846,18.548 C5.936,18.359 6.168,18.183 6.400,18.223 C6.308,18.286 6.223,18.360 6.153,18.445 C6.119,18.487 6.129,18.487 6.162,18.517 C6.183,18.537 6.205,18.557 6.227,18.576 C6.287,18.628 6.350,18.678 6.413,18.727 C6.614,18.880 6.830,19.015 7.053,19.137 C7.791,19.538 8.617,19.786 9.455,19.915 C10.609,20.093 11.819,20.074 12.964,19.844 C13.729,19.690 14.479,19.431 15.142,19.034 C15.332,18.920 15.514,18.794 15.684,18.654 C15.735,18.613 15.784,18.569 15.831,18.524 C15.839,18.517 15.850,18.510 15.856,18.500 C15.869,18.481 15.871,18.484 15.851,18.459 C15.778,18.370 15.683,18.291 15.585,18.227 C15.863,18.172 16.155,18.424 16.199,18.674 C16.233,18.852 16.215,19.026 16.117,19.185 ZM12.537,16.648 C12.537,16.837 12.296,16.992 12.000,16.992 C11.703,16.992 11.463,16.837 11.463,16.648 C11.463,16.458 11.703,16.304 12.000,16.304 C12.296,16.304 12.537,16.458 12.537,16.648 ZM13.100,16.480 C13.056,16.193 12.841,15.937 12.549,15.846 C12.194,15.736 11.796,15.775 11.434,15.836 C11.770,15.693 12.210,15.620 12.568,15.720 C12.736,15.767 12.887,15.846 13.002,15.973 C13.035,16.009 13.064,16.052 13.090,16.092 C13.104,16.114 13.226,16.360 13.202,16.366 C13.228,16.601 13.180,16.837 13.009,17.018 C13.079,16.841 13.130,16.673 13.100,16.480 ZM9.908,16.992 C9.612,16.992 9.372,16.837 9.372,16.648 C9.372,16.458 9.612,16.304 9.908,16.304 C10.204,16.304 10.444,16.458 10.444,16.648 C10.444,16.837 10.204,16.992 9.908,16.992 ZM8.919,16.082 C8.808,16.224 8.732,16.380 8.721,16.559 C8.711,16.723 8.761,16.867 8.820,17.018 C8.536,16.716 8.568,16.267 8.834,15.968 C8.927,15.879 9.018,15.810 9.141,15.759 C9.285,15.700 9.449,15.680 9.606,15.679 C9.870,15.678 10.154,15.730 10.395,15.836 C10.206,15.803 10.015,15.784 9.823,15.781 C9.503,15.775 9.125,15.821 8.919,16.082 Z" id="path-8" class="cls-8" fill-rule="evenodd"/>
        </g>
        <g id="bowtie">
          <path d="M7.176,23.001 C7.176,23.001 7.049,22.460 8.062,22.630 C9.075,22.801 10.193,23.222 10.193,23.222 C10.193,23.222 10.267,22.868 10.889,22.909 C11.512,22.951 11.849,23.272 11.849,23.272 C11.849,23.272 13.305,22.660 13.906,22.670 C14.508,22.680 14.550,22.530 14.624,22.750 C14.698,22.971 14.687,23.152 14.624,23.462 C14.561,23.773 14.265,24.124 14.265,24.335 C14.265,24.546 14.655,25.735 14.107,25.809 C13.559,25.883 11.775,24.967 11.775,24.967 C11.775,24.967 11.649,25.327 11.069,25.327 C10.488,25.327 10.182,25.086 10.182,25.086 C10.182,25.086 8.241,25.858 7.914,25.813 C7.587,25.769 7.566,25.448 7.608,25.157 C7.650,24.867 7.766,24.345 7.703,24.294 C7.640,24.244 7.176,23.001 7.176,23.001 Z" id="path-9" class="cls-16" fill-rule="evenodd"/>
          <path d="M7.984,24.387 C7.984,24.387 8.034,24.953 8.508,24.953 C8.981,24.953 9.995,24.212 9.995,24.212 C9.995,24.212 10.671,24.686 11.038,24.686 C11.404,24.686 11.706,24.212 11.706,24.212 C11.706,24.212 13.862,24.526 14.438,23.823 C15.014,23.120 14.304,24.359 14.304,24.359 C14.304,24.359 14.714,25.721 14.248,25.832 C13.781,25.943 11.843,25.036 11.843,25.036 C11.843,25.036 11.330,25.348 10.972,25.342 C10.614,25.335 10.233,25.107 10.233,25.107 C10.233,25.107 8.112,25.896 7.770,25.752 C7.428,25.608 7.690,24.571 7.984,24.387 Z" id="path-10" class="cls-17" fill-rule="evenodd"/>
          <path d="M14.982,22.789 C14.951,22.661 14.866,22.561 14.737,22.500 C14.139,22.220 12.465,22.873 11.863,23.126 C11.672,22.888 11.372,22.735 11.034,22.735 C10.695,22.735 10.395,22.889 10.204,23.127 C9.604,22.875 7.924,22.219 7.326,22.500 C7.197,22.561 7.112,22.661 7.081,22.789 C6.923,23.445 7.382,24.198 7.550,24.444 C7.456,24.701 7.244,25.400 7.502,25.823 C7.580,25.949 7.735,26.003 7.943,26.003 C8.497,26.003 9.426,25.623 10.245,25.225 C10.437,25.435 10.719,25.569 11.034,25.569 C11.367,25.569 11.663,25.419 11.855,25.187 C12.669,25.602 13.591,26.000 14.137,26.000 C14.336,26.000 14.485,25.947 14.561,25.823 C14.819,25.400 14.607,24.701 14.514,24.444 C14.681,24.198 15.140,23.445 14.982,22.789 ZM7.830,25.641 C7.651,25.349 7.853,24.692 7.937,24.484 C7.937,24.484 7.975,24.393 7.975,24.393 C7.975,24.393 7.914,24.313 7.914,24.313 C7.743,24.087 7.326,23.386 7.451,22.869 C7.454,22.854 7.460,22.840 7.494,22.824 C7.840,22.662 9.129,23.073 10.031,23.450 C10.003,23.539 9.988,23.633 9.988,23.731 C9.988,23.731 9.988,24.572 9.988,24.572 C9.988,24.692 10.011,24.806 10.052,24.913 C9.011,25.412 7.994,25.745 7.830,25.641 ZM11.700,24.572 C11.700,24.923 11.402,25.207 11.034,25.207 C10.666,25.207 10.367,24.923 10.367,24.572 C10.367,24.572 10.367,23.731 10.367,23.731 C10.367,23.380 10.666,23.095 11.034,23.095 C11.402,23.095 11.700,23.380 11.700,23.731 C11.700,23.731 11.700,24.572 11.700,24.572 ZM14.126,24.484 C14.211,24.691 14.412,25.348 14.241,25.633 C14.069,25.739 13.059,25.386 12.033,24.868 C12.063,24.774 12.080,24.675 12.080,24.572 C12.080,24.572 12.080,23.731 12.080,23.731 C12.080,23.633 12.064,23.537 12.036,23.448 C12.937,23.072 14.225,22.662 14.569,22.824 C14.603,22.840 14.609,22.854 14.612,22.869 C14.762,23.490 14.155,24.305 14.148,24.314 C14.148,24.314 14.088,24.393 14.088,24.393 C14.088,24.393 14.126,24.484 14.126,24.484 Z" id="path-11" class="cls-18" fill-rule="evenodd"/>
        </g>
        <g id="eyes">
          <path d="M14.776,15.177 C14.677,15.383 14.504,15.529 14.290,15.584 C14.270,15.589 14.252,15.593 14.233,15.596 C14.232,15.597 14.232,15.597 14.232,15.597 C13.815,15.671 13.383,15.377 13.251,14.928 C13.185,14.701 13.200,14.467 13.296,14.268 C13.395,14.062 13.569,13.917 13.783,13.862 C14.218,13.748 14.684,14.048 14.821,14.518 C14.887,14.744 14.873,14.978 14.776,15.177 ZM7.792,15.607 C7.772,15.605 7.753,15.602 7.733,15.598 C7.319,15.509 7.049,15.077 7.118,14.615 C7.153,14.382 7.268,14.174 7.441,14.027 C7.619,13.877 7.839,13.809 8.059,13.839 C8.506,13.898 8.805,14.348 8.732,14.831 C8.659,15.318 8.236,15.667 7.792,15.607 Z" id="path-12" class="cls-20" fill-rule="evenodd"/>
          <path d="M14.179,14.567 C14.018,14.597 13.864,14.498 13.834,14.346 C13.804,14.195 13.910,14.048 14.070,14.020 C14.231,13.990 14.385,14.089 14.415,14.241 C14.445,14.392 14.339,14.538 14.179,14.567 ZM8.130,14.615 C7.971,14.581 7.871,14.431 7.907,14.281 C7.942,14.130 8.100,14.037 8.260,14.072 C8.419,14.106 8.519,14.256 8.483,14.406 C8.448,14.556 8.290,14.650 8.130,14.615 Z" id="path-13" class="cls-21" fill-rule="evenodd"/>
          <path d="M14.506,15.165 C14.500,15.185 14.433,15.347 14.204,15.353 C14.163,15.355 14.126,15.353 14.090,15.346 C14.090,15.346 14.090,15.346 14.089,15.346 C14.089,15.346 14.087,15.345 14.086,15.345 C14.072,15.344 14.059,15.342 14.046,15.340 C14.043,15.338 14.039,15.338 14.035,15.337 C14.022,15.334 14.009,15.330 13.996,15.328 C13.993,15.327 13.991,15.327 13.990,15.325 C13.624,15.216 13.516,14.814 13.516,14.814 C13.529,14.831 13.545,14.845 13.559,14.861 C13.917,15.259 14.508,15.160 14.508,15.160 C14.508,15.160 14.508,15.163 14.506,15.165 ZM7.831,15.348 C7.792,15.334 7.759,15.316 7.729,15.298 C7.717,15.291 7.705,15.284 7.693,15.276 C7.689,15.274 7.684,15.271 7.681,15.268 C7.663,15.256 7.647,15.242 7.631,15.227 C7.628,15.226 7.626,15.224 7.624,15.221 C7.623,15.219 7.621,15.218 7.620,15.216 C7.609,15.209 7.600,15.199 7.592,15.188 C7.365,14.947 7.427,14.592 7.427,14.592 C7.431,14.613 7.438,14.631 7.444,14.651 C7.606,15.153 8.190,15.287 8.190,15.287 C8.190,15.287 8.189,15.288 8.188,15.290 C8.179,15.298 8.049,15.433 7.831,15.348 Z" id="path-14" class="cls-22" fill-rule="evenodd"/>
        </g>
      </g>
    </g>
  </g>
</svg>
